# AST/ASF file generated using VICON BodyLanguage
# -----------------------------------------------
:version 1.10
:name VICON
:units
  mass 1.0
  length 0.45
  angle deg
:documentation
   .ast/.asf automatically generated from VICON data using
   VICON BodyBuilder and BodyLanguage model FoxedUp or BRILLIANT.MOD
:root
   order TX TY TZ RX RY RZ
   axis XYZ
   position 0 0 0  
   orientation 0 0 0 
:bonedata
  begin
     id 1 
     name lhipjoint
     direction 0.603808 -0.713975 0.35448 
     length 2.2025 
     axis 0 0 0  XYZ
  end
  begin
     id 2 
     name lfemur
     direction 0.34202 -0.939693 0  
     length 6.55877  
     axis 0 0 20  XYZ
    dof rx ry rz
    limits (-160.0 20.0)
           (-70.0 70.0)
           (-60.0 70.0)
  end
  begin
     id 3 
     name ltibia
     direction 0.34202 -0.939693 0   
     length 6.80302   
     axis 0 0 20   XYZ
    dof rx
    limits (-10.0 170.0)
  end
  begin
     id 4 
     name lfoot
     direction 0.091848 -0.25235 0.963267   
     length 2.03446   
     axis -90 7.62852e-016 20   XYZ
    dof rx rz
    limits (-45.0 90.0)
           (-70.0 20.0)
  end
  begin
     id 5 
     name ltoes
     direction 1.53608e-011 -4.21925e-011 1   
     length 1.02033   
     axis -90 7.62852e-016 20   XYZ
    dof rx
    limits (-90.0 20.0)
  end
  begin
     id 6 
     name rhipjoint
     direction -0.587285 -0.724947 0.359928   
     length 2.16916  
     axis 0 0 0  XYZ 
  end
  begin
     id 7 
     name rfemur
     direction -0.34202 -0.939693 0   
     length 6.43173   
     axis 0 0 -20   XYZ
    dof rx ry rz
    limits (-160.0 20.0)
           (-70.0 70.0)
           (-70.0 60.0)
  end
  begin
     id 8 
     name rtibia
     direction -0.34202 -0.939693 0   
     length 6.70662   
     axis 0 0 -20   XYZ
    dof rx
    limits (-10.0 170.0)
 end
 begin
     id 9 
     name rfoot
     direction -0.11854 -0.325686 0.938018   
     length 2.0773  
     axis -90 -7.62852e-016 -20   XYZ
    dof rx rz
    limits (-45.0 90.0)
           (-20.0 70.0)
  end
  begin
     id 10 
     name rtoes
     direction -1.53547e-011 -4.21838e-011 1   
     length 1.03267   
     axis -90 -7.62852e-016 -20   XYZ
    dof rx
    limits (-90.0 20.0)
  end
  begin
     id 11 
     name lowerback
     direction -0.0286554 0.999539 0.0100613   
     length 2.08751   
     axis 0 0 0   XYZ
    dof rx ry rz
    limits (-20.0 45.0)
           (-30.0 30.0)
           (-30.0 30.0)
  end
  begin
     id 12 
     name upperback
     direction 0.0227093 0.999705 -0.00860929   
     length 2.08517   
     axis 0 0 0   XYZ
    dof rx ry rz
    limits (-20.0 45.0)
           (-30.0 30.0)
           (-30.0 30.0)
  end
  begin
     id 13 
     name thorax
     direction 0.0351627 0.999285 -0.013892   
     length 2.08412   
     axis 0 0 0   XYZ
    dof rx ry rz
    limits (-20.0 45.0)
           (-30.0 30.0)
           (-30.0 30.0)
  end
  begin
     id 14 
     name lowerneck
     direction -0.0696283 0.997344 0.0213922   
     length 1.44164   
     axis 0 0 0   XYZ
    dof rx ry rz
    limits (-20.0 45.0)
           (-30.0 30.0)
           (-30.0 30.0)
  end
  begin
     id 15 
     name upperneck
     direction 0.0531 0.990412 -0.127531   
     length 1.45022   
     axis 0 0 0   XYZ
    dof rx ry rz
    limits (-20.0 45.0)
           (-30.0 30.0)
           (-30.0 30.0)
  end
  begin
     id 16
     name head
     direction 0.0188154 0.998548 -0.0504727  
     length 1.45845  
     axis 0 0 0   XYZ
    dof rx ry rz
    limits (-20.0 45.0)
           (-30.0 30.0)
           (-30.0 30.0)
  end
  begin
     id 17 
     name lclavicle
     direction 0.961559 0.260051 0.088188  
     length 2.86057  
     axis 0 0 0   XYZ
    dof ry rz
    limits (-20.0 10.0)
           (0.0 20.0)
  end
  begin
     id 18 
     name lhumerus
     direction 1 -4.48959e-011 2.88185e-027   
     length 4.36901   
     axis 180 -30 -90   XYZ
    dof rx ry rz
    limits (-60.0 90.0)
           (-90.0 90.0)
           (-90.0 90.0)
  end
  begin
     id 19
     name lradius
     direction 1 -4.48965e-011 -3.92618e-028   
     length 3.21737   
     axis 180 -30 -90   XYZ
    dof rx
    limits (-10.0 170.0)
  end
  begin
     id 20
     name lwrist
     direction 1 -4.49037e-011 2.57246e-027   
     length 1.60869   
     axis -1.61769e-015 90 90   XYZ
    dof ry
    limits (-180.0 0.0)
 end
  begin
     id 21 
     name lhand
     direction 1 -4.48807e-011 5.12958e-027   
     length 0.564313   
     axis -3.27988e-015 90 90   XYZ
    dof rx rz
    limits (-90.0 90.0)
           (-45.0 45.0)
  end
  begin
     id 22 
     name lfingers
     direction 1 -4.48879e-011 1.02687e-026   
     length 0.454963   
     axis -6.5598e-015 90 90   XYZ
    dof rx
    limits (0.0 90.0)
  end
  begin
     id 23
     name lthumb
     direction 0.707107 -6.3475e-011 0.707107   
     length 0.653239   
     axis -90 45 2.19363e-014   XYZ
    dof rx rz
    limits (-45.0 45.0)
           (-45.0 45.0)
  end
  begin
     id 24 
     name rclavicle
     direction -0.954677 0.253915 0.155304   
     length 3.11497  
     axis 0 0 0   XYZ 
    dof ry rz
    limits (-10.0 20.0)
           (-20.0 0.0)
  end
  begin
     id 25 
     name rhumerus
     direction -1 -4.48958e-011 -8.20169e-028  
     length 4.34118   
     axis 180 30 90   XYZ
    dof rx ry rz
    limits (-90.0 60.0)
           (-90.0 90.0)
           (-90.0 90.0)
  end
  begin
     id 26 
     name rradius
     direction -1 -4.48978e-011 1.5676e-027   
     length 3.09531   
     axis 180 30 90   XYZ
    dof rx
    limits (-10.0 170.0)
  end
  begin
     id 27 
     name rwrist
     direction -1 -4.49001e-011 2.57123e-027   
     length 1.54765   
     axis -1.61769e-015 -90 -90   XYZ
    dof ry
    limits (-180.0 0.0)
  end
  begin
     id 28
     name rhand
     direction -1 -4.48847e-011 5.13225e-027   
     length 0.597446   
     axis -3.27988e-015 -90 -90   XYZ
    dof rx rz
    limits (-90.0 90.0)
           (-45.0 45.0)
  end
  begin
     id 29
     name rfingers
     direction -1 -4.49094e-011 1.02974e-026   
     length 0.481677   
     axis -6.5598e-015 -90 -90   XYZ
    dof rx
    limits (0.0 90.0)
  end
  begin
     id 30
     name rthumb
     direction -0.707107 -6.34859e-011 0.707107   
     length 0.691594   
     axis -90 -45 -2.19363e-014   XYZ
    dof rx rz
    limits (-45.0 45.0)
           (-45.0 45.0)
  end
:hierarchy
  begin
    root lhipjoint rhipjoint lowerback
    lhipjoint lfemur
    lfemur ltibia
    ltibia lfoot
    lfoot ltoes
    rhipjoint rfemur
    rfemur rtibia
    rtibia rfoot
    rfoot rtoes
    lowerback upperback
    upperback thorax
    thorax lowerneck lclavicle rclavicle
    lowerneck upperneck
    upperneck head
    lclavicle lhumerus
    lhumerus lradius
    lradius lwrist
    lwrist lhand lthumb
    lhand lfingers
    rclavicle rhumerus
    rhumerus rradius
    rradius rwrist
    rwrist rhand rthumb
    rhand rfingers
  end

#!OML:ASF I:\Acrobat_Osman\acrobat\cartwheel_test 2\Patient 1\Session 1\acrobat.ASF
:FULLY-SPECIFIED
:DEGREES
1202
root 0.857615 15.0377 11.5943 -1.49971 620.011 -713.99
lowerback 0.411294 2.37246 -4.55985
upperback 1.83197 3.15167 1.83005
thorax 1.3068 1.4968 4.4568
lowerneck -9.03562 0.266118 -3.78927
upperneck 9.96024 0.562965 2.50856
head 4.4432 0.272024 1.42466
rclavicle -1.23743e-014 -7.95139e-016
rhumerus -35.6232 9.32411 278.08
rradius 71.7333
rwrist -722.327
rhand -19.8786 -1416.53
rfingers 7.12502
rthumb 6.45698 -6.41136
lclavicle -1.23743e-014 -7.95139e-016
lhumerus -43.5552 -6.51947 80.5199
lradius 51.827
lwrist 22.8904
lhand -25.0558 53.2138
lfingers 7.12502
lthumb 1.4577 83.1886
rfemur -3.10309 -6.86804 4.4405
rtibia 63.877
rfoot -2.87197 -3.12218
rtoes -48.4665
lfemur -28.4621 12.7756 -23.5811
ltibia 56.8021
lfoot -21.4028 18.1295
ltoes -39.4093
1203
root 0.672669 14.9867 11.5809 2.51998 619.988 -718.206
lowerback 0.325884 2.25074 -5.37379
upperback 1.8062 3.00438 1.5035
thorax 1.32284 1.41551 4.58031
lowerneck -8.99265 0.532858 -3.82242
upperneck 9.95067 0.932167 2.44387
head 4.4213 0.448134 1.43303
rclavicle -2.21893e-014 3.18055e-015
rhumerus -35.1145 8.42667 276.545
rradius 71.6081
rwrist -721.213
rhand -20.5995 -1416.62
rfingers 7.12502
rthumb 5.76104 -6.51706
lclavicle -2.21893e-014 3.18055e-015
lhumerus -41.104 -6.88267 80.1093
lradius 50.4781
lwrist 22.2798
lhand -21.7921 54.6576
lfingers 7.12502
lthumb 4.60951 84.5875
rfemur -4.19819 -7.28716 2.89076
rtibia 65.3396
rfoot -2.06133 -4.71869
rtoes -48.0303
lfemur -27.6956 13.1433 -24.2503
ltibia 57.2324
lfoot -22.1377 17.9001
ltoes -39.3227
1204
root 0.497339 14.9678 11.5788 2.68959 620.369 -718.676
lowerback 0.508702 2.06036 -5.27094
upperback 1.85181 2.74141 1.33689
thorax 1.31072 1.28507 4.34419
lowerneck -9.02456 0.768442 -3.75843
upperneck 9.95415 1.25728 2.30885
head 4.41859 0.602547 1.40151
rclavicle -8.32411e-015 -1.2921e-015
rhumerus -34.7917 7.71509 274.871
rradius 71.7455
rwrist -720.766
rhand -20.7588 -1416.5
rfingers 7.12502
rthumb 5.60724 -6.40944
lclavicle -8.32411e-015 -1.2921e-015
lhumerus -38.8244 -7.7827 80.4764
lradius 49.8261
lwrist 23.3711
lhand -21.9326 55.9579
lfingers 7.12502
lthumb 4.47383 85.8907
rfemur -5.18382 -7.91171 2.48304
rtibia 66.1929
rfoot -1.73801 -6.71498
rtoes -47.1397
lfemur -26.791 12.9615 -24.1225
ltibia 57.562
lfoot -22.018 17.7439
ltoes -40.4069
1205
root 0.322852 14.9781 11.5742 1.23044 620.388 -717.324
lowerback 0.435697 1.98152 -4.88375
upperback 1.91253 2.63858 1.31221
thorax 1.44308 1.23353 4.10557
lowerneck -9.07897 1.00213 -3.70363
upperneck 9.89449 1.59899 2.03312
head 4.40178 0.757268 1.32884
rclavicle 2.03133e-014 8.94531e-016
rhumerus -34.643 7.94296 272.953
rradius 72.3808
rwrist -721.811
rhand -21.6222 -1417.3
rfingers 7.12502
rthumb 4.77359 -7.22608
lclavicle 2.03133e-014 8.94531e-016
lhumerus -36.9194 -9.19022 81.6649
lradius 50.0131
lwrist 26.8331
lhand -21.6217 56.8908
lfingers 7.12502
lthumb 4.77404 86.817
rfemur -6.66633 -8.17629 2.91224
rtibia 66.4288
rfoot -1.99415 -8.40704
rtoes -46.9337
lfemur -25.9598 13.0495 -23.7044
ltibia 57.6747
lfoot -21.5259 17.5805
ltoes -42.6477
1206
root 0.152955 15.0157 11.5664 0.661996 620.296 -716.819
lowerback 0.373022 1.93156 -4.64997
upperback 1.95978 2.57386 1.29511
thorax 1.54404 1.20062 3.96004
lowerneck -9.08288 1.24434 -3.71178
upperneck 9.74652 1.96689 1.68484
head 4.35027 0.919058 1.24446
rclavicle -2.9768e-014 9.93923e-015
rhumerus -34.6266 9.15431 270.941
rradius 73.1681
rwrist -723.43
rhand -22.7078 -1417.74
rfingers 7.12502
rthumb 3.72525 -7.68981
lclavicle -2.9768e-014 9.93923e-015
lhumerus -35.2874 -10.7407 83.114
lradius 50.5966
lwrist 30.1451
lhand -22.1323 56.9767
lfingers 7.12502
lthumb 4.28105 86.9134
rfemur -8.34861 -8.22487 3.63368
rtibia 65.9857
rfoot -2.75515 -9.85067
rtoes -46.8401
lfemur -25.0496 13.1836 -23.4355
ltibia 57.4753
lfoot -20.6059 17.566
ltoes -44.663
1207
root -0.0207393 15.0896 11.5558 0.0874187 620.074 -716.239
lowerback 0.311986 1.918 -4.44719
upperback 1.94697 2.55732 1.28579
thorax 1.5753 1.19496 3.83841
lowerneck -9.09464 1.52976 -3.56604
upperneck 9.69572 2.37217 1.3187
head 4.33215 1.10267 1.13279
rclavicle 6.4605e-015 -1.59028e-015
rhumerus -34.8258 11.3795 268.663
rradius 74.0239
rwrist -725.496
rhand -24.4379 -1417.67
rfingers 7.12502
rthumb 2.0544 -7.64407
lclavicle 6.4605e-015 -1.59028e-015
lhumerus -34.0297 -12.6915 84.9337
lradius 51.6701
lwrist 33.8855
lhand -23.8936 56.469
lfingers 7.12502
lthumb 2.58013 86.4331
rfemur -10.1122 -8.06709 4.68927
rtibia 64.8161
rfoot -4.14998 -10.75
rtoes -46.5832
lfemur -24.0501 13.2767 -23.1035
ltibia 56.9937
lfoot -19.6462 17.3272
ltoes -45.5894
1208
root -0.201032 15.1799 11.5389 -0.832905 619.717 -715.253
lowerback 0.155995 1.94198 -4.18988
upperback 1.89488 2.59443 1.27946
thorax 1.61631 1.21781 3.69213
lowerneck -9.08724 1.87173 -3.11053
upperneck 9.69609 2.81821 0.879526
head 4.33304 1.31268 0.951516
rclavicle 2.24627e-014 -1.53561e-014
rhumerus -35.1018 14.0235 266.352
rradius 74.984
rwrist -726.224
rhand -25.5624 -1418
rfingers 7.12502
rthumb 0.968359 -7.98187
lclavicle 2.24627e-014 -1.53561e-014
lhumerus -32.9659 -14.7534 86.8948
lradius 52.6843
lwrist 37.2812
lhand -24.6978 55.6371
lfingers 7.12502
lthumb 1.80339 85.6092
rfemur -11.931 -8.02362 5.96415
rtibia 63.0288
rfoot -5.97986 -10.9375
rtoes -46.5937
lfemur -22.9591 13.4153 -22.6488
ltibia 56.2929
lfoot -18.876 16.7085
ltoes -46.0487
1209
root -0.386811 15.2645 11.5297 -0.925715 620.283 -714.891
lowerback -0.205423 1.65168 -3.86418
upperback 1.7717 2.22014 1.22236
thorax 1.74126 1.03628 3.45798
lowerneck -9.05156 2.18812 -2.77914
upperneck 9.26298 3.23096 0.588439
head 4.6646 1.50807 0.920945
rclavicle -1.98785e-015 1.38155e-014
rhumerus -35.4765 17.1032 264.039
rradius 75.9108
rwrist -726.446
rhand -26.2765 -1417.55
rfingers 7.12502
rthumb 0.27865 -7.53046
lclavicle -1.98785e-015 1.38155e-014
lhumerus -32.0949 -16.9659 89.0295
lradius 53.8406
lwrist 40.6764
lhand -24.4217 55.2519
lfingers 7.12502
lthumb 2.07012 85.2216
rfemur -13.7133 -9.01396 7.15392
rtibia 60.7858
rfoot -7.81725 -10.7884
rtoes -47.0153
lfemur -22.1777 12.638 -22.4795
ltibia 55.5287
lfoot -17.8888 16.148
ltoes -46.4196
1210
root -0.573335 15.3526 11.4841 -1.41796 619.687 -714.39
lowerback -0.437389 1.76379 -4.06096
upperback 1.73676 2.3805 1.32658
thorax 1.80987 1.1121 3.68543
lowerneck -8.92751 2.43926 -2.66463
upperneck 9.09299 3.54912 0.587733
head 4.57199 1.67177 0.915828
rclavicle -3.02091e-014 -1.44119e-015
rhumerus -35.9914 20.4902 261.841
rradius 76.9377
rwrist -726.268
rhand -26.1919 -1416.99
rfingers 7.12502
rthumb 0.360404 -6.97206
lclavicle -3.02091e-014 -1.44119e-015
lhumerus -31.6071 -19.96 91.376
lradius 55.4332
lwrist 44.6564
lhand -24.2044 55.6131
lfingers 7.12502
lthumb 2.27994 85.5806
rfemur -15.5763 -8.43325 8.80959
rtibia 58.2345
rfoot -9.36173 -11.0681
rtoes -47.5812
lfemur -20.8949 12.9665 -22.0062
ltibia 54.7001
lfoot -17.0276 15.6101
ltoes -46.7293
1211
root -0.757602 15.4387 11.4507 -2.66664 620.062 -712.728
lowerback -0.811681 1.56864 -3.90728
upperback 1.5441 2.13113 1.41392
thorax 1.84692 0.992766 3.69446
lowerneck -8.89741 2.62443 -2.32709
upperneck 8.93702 3.76212 0.499088
head 4.51251 1.7868 0.836192
rclavicle 2.11209e-014 2.38542e-015
rhumerus -36.5697 23.7469 259.704
rradius 78.0273
rwrist -725.899
rhand -26.0329 -1416.39
rfingers 7.12502
rthumb 0.513954 -6.36949
lclavicle 2.11209e-014 2.38542e-015
lhumerus -31.2905 -23.3181 93.5633
lradius 57.3071
lwrist 48.569
lhand -23.5 56.165
lfingers 7.12502
lthumb 2.96023 86.1242
rfemur -17.6348 -8.43566 10.7373
rtibia 55.5107
rfoot -10.7722 -11.8157
rtoes -48.1696
lfemur -20.2117 12.2607 -21.5262
ltibia 53.88
lfoot -15.9955 15.0991
ltoes -46.9748
1212
root -0.929945 15.5131 11.4027 -3.37964 620.021 -711.668
lowerback -0.959935 1.544 -4.04125
upperback 1.33981 2.10519 1.48226
thorax 1.71522 0.985242 3.8408
lowerneck -8.98061 2.74715 -1.85352
upperneck 8.76359 3.87048 0.472166
head 4.47433 1.85857 0.748961
rclavicle -2.97556e-015 -1.86361e-015
rhumerus -37.1511 26.7225 257.578
rradius 79.0822
rwrist -725.43
rhand -26.2401 -1415.87
rfingers 7.12502
rthumb 0.313868 -5.84913
lclavicle -2.97556e-015 -1.86361e-015
lhumerus -30.8248 -25.9311 95.6188
lradius 58.8625
lwrist 52.0257
lhand -22.2174 56.9752
lfingers 7.12502
lthumb 4.1988 86.9136
rfemur -19.8366 -8.04098 12.5928
rtibia 52.7467
rfoot -12.0422 -12.6297
rtoes -48.6316
lfemur -19.3937 11.973 -21.0575
ltibia 52.9658
lfoot -15.238 14.6593
ltoes -46.9265
1213
root -1.11853 15.5707 11.3767 -3.87799 620.523 -711.368
lowerback -0.651857 1.3427 -3.95103
upperback 1.29573 1.82305 1.44737
thorax 1.52741 0.850774 3.73928
lowerneck -9.0598 2.8571 -1.51801
upperneck 8.51091 3.96146 0.618815
head 4.40107 1.92658 0.742484
rclavicle 1.52163e-014 -7.03201e-015
rhumerus -37.6089 29.4919 255.54
rradius 79.9461
rwrist -724.932
rhand -26.5786 -1415.43
rfingers 7.12502
rthumb -0.0130916 -5.41224
lclavicle 1.52163e-014 -7.03201e-015
lhumerus -30.6803 -28.6392 98.0619
lradius 60.5682
lwrist 56.5819
lhand -22.8654 58.0506
lfingers 7.12502
lthumb 3.57312 88.0004
rfemur -21.3391 -8.19007 13.9409
rtibia 49.9888
rfoot -13.3237 -13.2616
rtoes -48.6952
lfemur -17.9195 10.7046 -20.9262
ltibia 51.9193
lfoot -14.7616 14.7989
ltoes -46.534
1214
root -1.30755 15.629 11.3432 -3.6247 621.202 -711.287
lowerback -0.828221 1.07782 -4.01618
upperback 1.10277 1.47759 1.42395
thorax 1.45931 0.683311 3.74813
lowerneck -9.0941 2.9416 -1.28429
upperneck 8.15921 4.03506 0.726279
head 4.28234 1.98048 0.736892
rclavicle 4.74909e-015 -4.02539e-015
rhumerus -37.8344 32.0987 253.742
rradius 80.6123
rwrist -724.585
rhand -27.0764 -1415.15
rfingers 7.12502
rthumb -0.493835 -5.12661
lclavicle 4.74909e-015 -4.02539e-015
lhumerus -30.6118 -31.3802 100.284
lradius 62.4276
lwrist 59.8015
lhand -21.5402 57.8946
lfingers 7.12502
lthumb 4.85277 87.819
rfemur -23.4015 -7.9268 15.2662
rtibia 47.3682
rfoot -14.4299 -14.6268
rtoes -48.9802
lfemur -16.9635 9.38234 -20.9245
ltibia 50.711
lfoot -14.4095 14.834
ltoes -46.0204
1215
root -1.50562 15.6847 11.2929 -1.8135 620.933 -712.239
lowerback -1.79247 1.11077 -4.36219
upperback 0.808373 1.56785 1.40016
thorax 1.6815 0.72601 3.93947
lowerneck -9.12571 2.98464 -1.12054
upperneck 7.81697 4.06116 0.847146
head 4.16599 2.00822 0.74503
rclavicle -5.54889e-015 9.0944e-015
rhumerus -38.2992 34.8143 252.051
rradius 81.1031
rwrist -724.993
rhand -28.5005 -1413.33
rfingers 7.12502
rthumb -1.86932 -3.30459
lclavicle -5.54889e-015 9.0944e-015
lhumerus -30.7029 -34.0668 102.356
lradius 64.6922
lwrist 63.554
lhand -21.5179 58.3455
lfingers 7.12502
lthumb 4.87426 88.2694
rfemur -26.0366 -5.8798 16.3623
rtibia 44.946
rfoot -15.5869 -16.58
rtoes -49.5494
lfemur -16.323 9.25708 -20.9878
ltibia 49.3483
lfoot -14.2216 14.8813
ltoes -45.8053
